HIERARCHY
ROOT Hips
{
	OFFSET -339.306915 540.749023 89.171944
	CHANNELS 6 Xposition Yposition Zposition Zrotation Yrotation Xrotation
	JOINT Spine
	{
		OFFSET 0.000000 2.080078 8.814247
		CHANNELS 6 Xposition Yposition Zposition Zrotation Yrotation Xrotation
		JOINT Spine1
		{
			OFFSET 0.000000 0.000000 8.844139
			CHANNELS 6 Xposition Yposition Zposition Zrotation Yrotation Xrotation
			JOINT Spine2
			{
				OFFSET 0.000000 0.000000 11.682266
				CHANNELS 6 Xposition Yposition Zposition Zrotation Yrotation Xrotation
				JOINT Spine3
				{
					OFFSET 0.000000 0.000000 11.746696
					CHANNELS 6 Xposition Yposition Zposition Zrotation Yrotation Xrotation
					JOINT Neck
					{
						OFFSET 0.000000 0.000000 17.658264
						CHANNELS 6 Xposition Yposition Zposition Zrotation Yrotation Xrotation
						JOINT Neck1
						{
							OFFSET 0.000000 0.000000 5.101517
							CHANNELS 6 Xposition Yposition Zposition Zrotation Yrotation Xrotation
							JOINT Head
							{
								OFFSET 0.000000 0.000000 5.101517
								CHANNELS 6 Xposition Yposition Zposition Zrotation Yrotation Xrotation
								JOINT HeadEnd
								{
									OFFSET 0.000000 0.000000 11.655090
									CHANNELS 6 Xposition Yposition Zposition Zrotation Yrotation Xrotation
									End Site
									{
										OFFSET 0.000000 0.000000 0.100006
									}
								}
							}
						}
					}
					JOINT RightShoulder
					{
						OFFSET -2.625397 0.000000 11.175217
						CHANNELS 6 Xposition Yposition Zposition Zrotation Yrotation Xrotation
						JOINT RightArm
						{
							OFFSET 0.000000 0.000000 10.434708
							CHANNELS 6 Xposition Yposition Zposition Zrotation Yrotation Xrotation
							JOINT RightForeArm
							{
								OFFSET 0.000000 0.000000 29.628418
								CHANNELS 6 Xposition Yposition Zposition Zrotation Yrotation Xrotation
								JOINT RightHand
								{
									OFFSET 0.000000 0.000000 22.857605
									CHANNELS 6 Xposition Yposition Zposition Zrotation Yrotation Xrotation
									JOINT RightHandThumb1
									{
										OFFSET -2.867310 -2.944275 3.959564
										CHANNELS 6 Xposition Yposition Zposition Zrotation Yrotation Xrotation
										JOINT RightHandThumb2
										{
											OFFSET 0.000000 0.000000 3.350403
											CHANNELS 6 Xposition Yposition Zposition Zrotation Yrotation Xrotation
											JOINT RightHandThumb3
											{
												OFFSET 0.000000 0.000000 3.756516
												CHANNELS 6 Xposition Yposition Zposition Zrotation Yrotation Xrotation
												JOINT RightHandThumb4
												{
													OFFSET 0.000000 0.000000 3.147339
													CHANNELS 6 Xposition Yposition Zposition Zrotation Yrotation Xrotation
													End Site
													{
														OFFSET 0.000000 0.000000 0.100006
													}
												}
											}
										}
									}
									JOINT RightHandIndex1
									{
										OFFSET -0.086761 -2.345276 10.030899
										CHANNELS 6 Xposition Yposition Zposition Zrotation Yrotation Xrotation
										JOINT RightHandIndex2
										{
											OFFSET 0.000000 0.000000 4.061096
											CHANNELS 6 Xposition Yposition Zposition Zrotation Yrotation Xrotation
											JOINT RightHandIndex3
											{
												OFFSET 0.000000 0.000000 3.248871
												CHANNELS 6 Xposition Yposition Zposition Zrotation Yrotation Xrotation
												JOINT RightHandIndex4
												{
													OFFSET 0.000000 0.000000 2.639709
													CHANNELS 6 Xposition Yposition Zposition Zrotation Yrotation Xrotation
													End Site
													{
														OFFSET 0.000000 0.000000 0.100006
													}
												}
											}
										}
									}
									JOINT RightHandMiddle1
									{
										OFFSET 0.104095 -0.006775 9.502945
										CHANNELS 6 Xposition Yposition Zposition Zrotation Yrotation Xrotation
										JOINT RightHandMiddle2
										{
											OFFSET 0.000000 0.000000 4.568726
											CHANNELS 6 Xposition Yposition Zposition Zrotation Yrotation Xrotation
											JOINT RightHandMiddle3
											{
												OFFSET 0.000000 0.000000 3.654984
												CHANNELS 6 Xposition Yposition Zposition Zrotation Yrotation Xrotation
												JOINT RightHandMiddle4
												{
													OFFSET 0.000000 0.000000 2.741241
													CHANNELS 6 Xposition Yposition Zposition Zrotation Yrotation Xrotation
													End Site
													{
														OFFSET 0.000000 0.000000 0.100006
													}
												}
											}
										}
									}
									JOINT RightHandRing1
									{
										OFFSET 0.086761 2.267456 8.921707
										CHANNELS 6 Xposition Yposition Zposition Zrotation Yrotation Xrotation
										JOINT RightHandRing2
										{
											OFFSET 0.000000 0.000000 4.061096
											CHANNELS 6 Xposition Yposition Zposition Zrotation Yrotation Xrotation
											JOINT RightHandRing3
											{
												OFFSET 0.000000 0.000000 3.654984
												CHANNELS 6 Xposition Yposition Zposition Zrotation Yrotation Xrotation
												JOINT RightHandRing4
												{
													OFFSET 0.000000 0.000000 2.741241
													CHANNELS 6 Xposition Yposition Zposition Zrotation Yrotation Xrotation
													End Site
													{
														OFFSET 0.000000 0.000000 0.100006
													}
												}
											}
										}
									}
									JOINT RightHandPinky1
									{
										OFFSET -0.173492 4.467224 7.976990
										CHANNELS 6 Xposition Yposition Zposition Zrotation Yrotation Xrotation
										JOINT RightHandPinky2
										{
											OFFSET 0.000000 0.000000 3.350403
											CHANNELS 6 Xposition Yposition Zposition Zrotation Yrotation Xrotation
											JOINT RightHandPinky3
											{
												OFFSET 0.000000 0.000000 2.842758
												CHANNELS 6 Xposition Yposition Zposition Zrotation Yrotation Xrotation
												JOINT RightHandPinky4
												{
													OFFSET 0.000000 0.000000 2.639709
													CHANNELS 6 Xposition Yposition Zposition Zrotation Yrotation Xrotation
													End Site
													{
														OFFSET 0.000000 0.000000 0.100006
													}
												}
											}
										}
									}
									JOINT RightForeArmEnd
									{
										OFFSET 0.000000 0.000000 0.000000
										CHANNELS 6 Xposition Yposition Zposition Zrotation Yrotation Xrotation
										End Site
										{
											OFFSET 0.000000 0.000000 0.100006
										}
									}
								}
								JOINT RightArmEnd
								{
									OFFSET 0.000000 0.000000 0.000000
									CHANNELS 6 Xposition Yposition Zposition Zrotation Yrotation Xrotation
									End Site
									{
										OFFSET 0.000000 0.000000 0.100006
									}
								}
							}
						}
					}
					JOINT LeftShoulder
					{
						OFFSET 2.625397 0.000000 11.175217
						CHANNELS 6 Xposition Yposition Zposition Zrotation Yrotation Xrotation
						JOINT LeftArm
						{
							OFFSET 0.000000 0.000000 10.813629
							CHANNELS 6 Xposition Yposition Zposition Zrotation Yrotation Xrotation
							JOINT LeftForeArm
							{
								OFFSET 0.000000 0.000000 28.724777
								CHANNELS 6 Xposition Yposition Zposition Zrotation Yrotation Xrotation
								JOINT LeftHand
								{
									OFFSET 0.644379 0.328857 25.716171
									CHANNELS 6 Xposition Yposition Zposition Zrotation Yrotation Xrotation
									JOINT LeftHandThumb1
									{
										OFFSET 2.867310 -2.944275 3.959564
										CHANNELS 6 Xposition Yposition Zposition Zrotation Yrotation Xrotation
										JOINT LeftHandThumb2
										{
											OFFSET 0.000000 0.000000 3.350403
											CHANNELS 6 Xposition Yposition Zposition Zrotation Yrotation Xrotation
											JOINT LeftHandThumb3
											{
												OFFSET 0.000000 0.000000 3.756516
												CHANNELS 6 Xposition Yposition Zposition Zrotation Yrotation Xrotation
												JOINT LeftHandThumb4
												{
													OFFSET 0.000000 0.000000 3.100006
													CHANNELS 6 Xposition Yposition Zposition Zrotation Yrotation Xrotation
													End Site
													{
														OFFSET 0.000000 0.000000 0.100006
													}
												}
											}
										}
									}
									JOINT LeftHandIndex1
									{
										OFFSET 0.086761 -2.345276 10.030899
										CHANNELS 6 Xposition Yposition Zposition Zrotation Yrotation Xrotation
										JOINT LeftHandIndex2
										{
											OFFSET 0.000000 0.000000 4.061096
											CHANNELS 6 Xposition Yposition Zposition Zrotation Yrotation Xrotation
											JOINT LeftHandIndex3
											{
												OFFSET 0.000000 0.000000 3.248871
												CHANNELS 6 Xposition Yposition Zposition Zrotation Yrotation Xrotation
												JOINT LeftHandIndex4
												{
													OFFSET 0.000000 0.000000 2.639709
													CHANNELS 6 Xposition Yposition Zposition Zrotation Yrotation Xrotation
													End Site
													{
														OFFSET 0.000000 0.000000 0.100006
													}
												}
											}
										}
									}
									JOINT LeftHandMiddle1
									{
										OFFSET -0.104095 -0.006775 9.502945
										CHANNELS 6 Xposition Yposition Zposition Zrotation Yrotation Xrotation
										JOINT LeftHandMiddle2
										{
											OFFSET 0.000000 0.000000 4.568726
											CHANNELS 6 Xposition Yposition Zposition Zrotation Yrotation Xrotation
											JOINT LeftHandMiddle3
											{
												OFFSET 0.000000 0.000000 3.654984
												CHANNELS 6 Xposition Yposition Zposition Zrotation Yrotation Xrotation
												JOINT LeftHandMiddle4
												{
													OFFSET 0.000000 0.000000 2.741241
													CHANNELS 6 Xposition Yposition Zposition Zrotation Yrotation Xrotation
													End Site
													{
														OFFSET 0.000000 0.000000 0.100006
													}
												}
											}
										}
									}
									JOINT LeftHandRing1
									{
										OFFSET -0.086761 2.267456 8.921707
										CHANNELS 6 Xposition Yposition Zposition Zrotation Yrotation Xrotation
										JOINT LeftHandRing2
										{
											OFFSET 0.000000 0.000000 4.061096
											CHANNELS 6 Xposition Yposition Zposition Zrotation Yrotation Xrotation
											JOINT LeftHandRing3
											{
												OFFSET 0.000000 0.000000 3.654984
												CHANNELS 6 Xposition Yposition Zposition Zrotation Yrotation Xrotation
												JOINT LeftHandRing4
												{
													OFFSET 0.000000 0.000000 2.741241
													CHANNELS 6 Xposition Yposition Zposition Zrotation Yrotation Xrotation
													End Site
													{
														OFFSET 0.000000 0.000000 0.100006
													}
												}
											}
										}
									}
									JOINT LeftHandPinky1
									{
										OFFSET 0.173492 4.467224 7.976990
										CHANNELS 6 Xposition Yposition Zposition Zrotation Yrotation Xrotation
										JOINT LeftHandPinky2
										{
											OFFSET 0.000000 0.000000 3.350403
											CHANNELS 6 Xposition Yposition Zposition Zrotation Yrotation Xrotation
											JOINT LeftHandPinky3
											{
												OFFSET 0.000000 0.000000 2.842758
												CHANNELS 6 Xposition Yposition Zposition Zrotation Yrotation Xrotation
												JOINT LeftHandPinky4
												{
													OFFSET 0.000000 0.000000 2.639709
													CHANNELS 6 Xposition Yposition Zposition Zrotation Yrotation Xrotation
													End Site
													{
														OFFSET 0.000000 0.000000 0.100006
													}
												}
											}
										}
									}
									JOINT LeftForeArmEnd
									{
										OFFSET 0.000000 0.000000 0.000000
										CHANNELS 6 Xposition Yposition Zposition Zrotation Yrotation Xrotation
										End Site
										{
											OFFSET 0.000000 0.000000 0.100006
										}
									}
								}
								JOINT LeftArmEnd
								{
									OFFSET 0.000000 0.000000 0.000000
									CHANNELS 6 Xposition Yposition Zposition Zrotation Yrotation Xrotation
									End Site
									{
										OFFSET 0.000000 0.000000 0.100006
									}
								}
							}
						}
					}
				}
			}
		}
	}
	JOINT RightUpLeg
	{
		OFFSET -11.289948 0.000000 0.000000
		CHANNELS 6 Xposition Yposition Zposition Zrotation Yrotation Xrotation
		JOINT RightLeg
		{
			OFFSET 0.000000 0.000000 -38.200329
			CHANNELS 6 Xposition Yposition Zposition Zrotation Yrotation Xrotation
			JOINT RightFoot
			{
				OFFSET 0.000000 0.000000 -39.900856
				CHANNELS 6 Xposition Yposition Zposition Zrotation Yrotation Xrotation
				JOINT RightToeBase
				{
					OFFSET 0.000000 -15.261658 0.000001
					CHANNELS 6 Xposition Yposition Zposition Zrotation Yrotation Xrotation
					JOINT RightToeBaseEnd
					{
						OFFSET 0.000000 -7.370728 0.000001
						CHANNELS 6 Xposition Yposition Zposition Zrotation Yrotation Xrotation
						End Site
						{
							OFFSET 0.000000 0.000000 0.100000
						}
					}
				}
				JOINT RightLegEnd
				{
					OFFSET 0.000000 0.000000 0.000000
					CHANNELS 6 Xposition Yposition Zposition Zrotation Yrotation Xrotation
					End Site
					{
						OFFSET 0.000000 0.000000 0.100000
					}
				}
			}
			JOINT RightUpLegEnd
			{
				OFFSET 0.000000 0.000000 0.000000
				CHANNELS 6 Xposition Yposition Zposition Zrotation Yrotation Xrotation
				End Site
				{
					OFFSET 0.000000 0.000000 0.099998
				}
			}
		}
	}
	JOINT LeftUpLeg
	{
		OFFSET 11.315674 0.000000 0.000000
		CHANNELS 6 Xposition Yposition Zposition Zrotation Yrotation Xrotation
		JOINT LeftLeg
		{
			OFFSET 0.000000 0.000000 -38.200329
			CHANNELS 6 Xposition Yposition Zposition Zrotation Yrotation Xrotation
			JOINT LeftFoot
			{
				OFFSET 0.000000 0.000000 -39.900856
				CHANNELS 6 Xposition Yposition Zposition Zrotation Yrotation Xrotation
				JOINT LeftToeBase
				{
					OFFSET 0.000000 -15.261658 0.000001
					CHANNELS 6 Xposition Yposition Zposition Zrotation Yrotation Xrotation
					JOINT LeftToeBaseEnd
					{
						OFFSET 0.000000 -7.539978 0.000001
						CHANNELS 6 Xposition Yposition Zposition Zrotation Yrotation Xrotation
						End Site
						{
							OFFSET 0.000000 0.000000 0.100000
						}
					}
				}
				JOINT LeftLegEnd
				{
					OFFSET 0.000000 0.000000 0.000000
					CHANNELS 6 Xposition Yposition Zposition Zrotation Yrotation Xrotation
					End Site
					{
						OFFSET 0.000000 0.000000 0.100000
					}
				}
			}
			JOINT LeftUpLegEnd
			{
				OFFSET 0.000000 0.000000 0.000000
				CHANNELS 6 Xposition Yposition Zposition Zrotation Yrotation Xrotation
				End Site
				{
					OFFSET 0.000000 0.000000 0.099998
				}
			}
		}
	}
}
MOTION
Frames: 2
Frame Time: 0.016667
20.531494 -63.316833 87.543953 -13.251193 -5.208740 -8.439970 0.000002 2.080054 8.814232 -0.045314 -0.167991 6.422263 0.000006 -0.000015 8.844132 0.073599 -1.436631 3.219194 -0.000006 0.000008 11.682274 4.600219 1.487491 5.401259 -0.000025 0.000071 11.746696 1.741515 4.831172 5.078030 0.000010 0.000079 17.658276 1.848058 12.561285 -0.347749 -0.000002 -0.000009 5.101557 -3.304793 1.399022 -5.007219 0.000005 0.000004 5.101554 0.355496 -0.790257 -9.021275 -0.000003 -0.000002 11.655078 0.000000 0.000000 0.000000 -2.625420 0.000070 11.175240 11.495380 -81.305725 0.461176 -0.000027 -0.000021 10.434715 -66.848407 -57.451105 72.956283 0.000006 0.000000 29.628429 12.065556 -0.189260 27.084441 0.000017 -0.000031 22.857563 18.228305 10.254094 -6.125400 -2.867315 -2.944305 3.959534 31.788015 -23.322009 42.844312 0.000015 0.000015 3.350395 -26.178922 11.072142 -44.741752 0.000004 -0.000015 3.756512 -17.287810 9.935978 -30.477670 0.000005 0.000003 3.147334 -0.000001 -0.000001 0.000000 -0.086754 -2.345322 10.030857 -0.840599 -59.991320 -8.824084 -0.000011 0.000027 4.061111 2.420821 -42.725965 -7.458326 -0.000023 0.000031 3.248848 2.920833 -42.725985 -7.458355 -0.000005 -0.000004 2.639704 0.000000 -0.000001 0.000000 0.104095 -0.006844 9.502934 -11.293384 -61.330953 3.197451 -0.000007 -0.000025 4.568720 0.653221 -43.727786 -2.873471 0.000004 0.000002 3.654991 1.153228 -43.727739 -2.873468 0.000006 -0.000068 2.741233 0.000001 -0.000003 0.000001 0.086773 2.267399 8.921692 -47.790881 -70.615803 44.742650 -0.000055 -0.000028 4.061090 -1.405579 -53.605387 4.759619 0.000004 -0.000027 3.654985 -2.405582 -53.605432 4.759639 -0.000008 0.000007 2.741268 0.000000 0.000000 -0.000001 -0.173479 4.467138 7.976962 -78.963598 -66.607288 82.993110 -0.000008 -0.000034 3.350410 -8.554031 -58.709369 18.651869 -0.000034 0.000019 2.842773 -10.554263 -58.709233 18.652017 -0.000001 -0.000003 2.639713 0.000000 -0.000002 -0.000002 -0.000005 -0.000053 -0.000011 -0.000002 0.000004 -0.000000 -0.000012 -0.000011 -0.000010 0.000001 0.000000 0.000001 2.625423 0.000070 11.175233 -10.286371 86.897785 -0.264885 -0.000008 0.000002 10.813629 51.336279 57.791344 47.777040 0.000008 0.000015 28.724760 -18.343463 -0.273939 39.927773 0.644364 0.328850 25.716206 -17.150655 -2.269001 -8.358012 2.867302 -2.944321 3.959618 -31.533839 21.063501 45.970909 -0.000008 -0.000008 3.350426 21.149602 -10.702786 -36.709326 -0.000004 0.000008 3.756523 13.957273 -8.915269 -25.015682 0.000002 -0.000001 3.100033 0.000000 0.000000 -0.000000 0.086746 -2.345323 10.030876 22.445523 44.608105 13.371946 0.000004 0.000015 4.061096 0.993861 32.459631 5.128813 0.000009 0.000004 3.248875 1.493860 32.459651 5.128822 0.000002 0.000005 2.639692 -0.000002 0.000001 -0.000001 -0.104103 -0.006767 9.502922 14.925633 44.257495 9.747266 -0.000035 -0.000025 4.568716 0.034017 31.892445 1.868818 -0.000005 -0.000011 3.655004 0.534027 31.892400 1.868823 0.000009 -0.000001 2.741263 0.000000 0.000001 -0.000001 -0.086741 2.267400 8.921703 4.785303 49.396615 7.417440 0.000002 0.000025 4.061085 0.243288 34.666762 -2.424243 0.000010 0.000021 3.654993 -0.756721 34.666775 -2.424247 -0.000008 0.000012 2.741260 -0.000002 -0.000000 0.000002 0.173500 4.467171 7.976993 -8.332637 51.885006 2.403424 -0.000004 0.000002 3.350410 -0.413665 34.661762 -7.724124 0.000031 -0.000049 2.842770 -2.413664 34.661769 -7.724131 -0.000002 -0.000003 2.639734 0.000000 -0.000002 0.000002 0.000003 -0.000071 0.000017 -0.000001 -0.000001 -0.000001 -0.000008 0.000006 0.000031 0.000000 0.000001 -0.000000 -11.289977 0.000062 0.000006 13.851138 0.538649 -7.392976 0.000007 0.000016 -38.200329 0.012020 -0.007268 31.182699 0.000008 0.000007 -39.900841 -3.191060 5.503566 12.209691 0.000006 -15.261645 -0.000004 -0.725783 0.712992 -23.211903 -0.000003 -7.370668 0.000002 0.000000 -0.000000 -0.000000 -0.000003 0.000062 -0.000003 -0.000000 -0.000000 -0.000001 -0.000001 -0.000000 0.000003 0.000000 0.000000 0.000000 11.315640 0.000030 0.000008 7.780488 5.485759 1.901241 0.000000 0.000026 -38.200310 0.437722 -0.117571 15.034346 -0.000017 0.000058 -39.900852 10.495864 -0.503548 15.415061 -0.000004 -15.261633 0.000008 -0.685727 -0.063827 -24.019916 -0.000005 -7.539917 0.000002 0.000000 0.000000 -0.000000 0.000001 -0.000002 0.000004 0.000000 0.000000 0.000001 -0.000033 -0.000002 -0.000001 0.000000 -0.000000 -0.000001 
20.603058 -63.289734 87.558975 -12.134876 -5.359950 -8.299989 0.000004 2.080049 8.814234 0.031358 -0.279228 6.426789 -0.000003 -0.000016 8.844147 0.180836 -1.387775 3.292251 -0.000001 -0.000007 11.682281 5.265966 1.689272 5.345019 0.000018 0.000080 11.746704 2.064783 5.201723 5.173208 0.000007 -0.000024 17.658278 0.725003 11.164182 -0.689755 0.000010 0.000000 5.101526 -4.100756 1.391804 -5.007000 0.000005 -0.000013 5.101528 0.299356 -0.961210 -9.202526 0.000002 0.000000 11.655076 -0.000000 -0.000000 0.000000 -2.625416 -0.000011 11.175220 11.240588 -80.965329 0.436839 0.000023 0.000006 10.434711 -68.845534 -56.460359 73.370882 0.000011 -0.000023 29.628424 12.023954 -0.231861 27.654659 0.000027 -0.000019 22.857590 16.515609 10.857988 -5.964682 -2.867313 -2.944260 3.959564 31.729835 -22.942011 43.364232 0.000008 0.000038 3.350418 -25.337456 11.058767 -43.400620 0.000011 0.000031 3.756508 -16.725405 9.787709 -29.562172 -0.000007 0.000001 3.147337 -0.000000 -0.000001 0.000000 -0.086777 -2.345309 10.030907 -0.287761 -57.294116 -8.424915 -0.000013 0.000005 4.061096 2.093089 -40.794015 -6.966323 -0.000010 0.000013 3.248863 2.593091 -40.793998 -6.966321 0.000005 0.000001 2.639712 -0.000002 -0.000000 -0.000001 0.104095 -0.006744 9.502930 -10.024452 -58.846888 2.672891 0.000005 -0.000015 4.568697 0.533146 -41.917165 -2.696845 -0.000000 -0.000019 3.654989 1.033146 -41.917199 -2.696844 0.000005 -0.000059 2.741262 -0.000000 -0.000002 -0.000000 0.086769 2.267460 8.921696 -42.300311 -68.754043 39.782799 -0.000025 0.000001 4.061134 -1.161252 -51.767038 4.452474 -0.000017 -0.000005 3.654987 -2.161253 -51.767038 4.452466 0.000003 -0.000009 2.741243 0.000001 0.000002 -0.000003 -0.173487 4.467230 7.976982 -72.073461 -65.884230 76.185036 -0.000015 0.000004 3.350403 -7.399513 -56.810235 17.287081 -0.000004 -0.000088 2.842735 -9.399506 -56.810225 17.287072 -0.000002 0.000001 2.639716 0.000000 -0.000000 0.000002 0.000007 -0.000007 -0.000018 0.000000 -0.000001 0.000002 0.000008 -0.000000 0.000027 -0.000001 0.000000 -0.000002 2.625383 0.000016 11.175233 -10.164991 86.810844 -0.249694 0.000015 0.000019 10.813648 46.974230 59.569174 43.928225 -0.000002 0.000008 28.724783 -14.705981 -0.474346 41.956568 0.644367 0.328848 25.716169 -15.337449 -2.307883 -7.057600 2.867310 -2.944290 3.959595 -31.533836 21.063482 45.970858 0.000008 0.000023 3.350426 21.149568 -10.702783 -36.709275 -0.000027 0.000000 3.756496 13.957292 -8.915270 -25.015663 -0.000008 -0.000000 3.100021 -0.000001 0.000001 -0.000002 0.086746 -2.345278 10.030907 22.028844 43.843042 13.904471 0.000002 -0.000020 4.061104 0.943644 31.982053 5.034622 0.000009 -0.000005 3.248878 1.443661 31.981517 5.034602 0.000005 -0.000004 2.639710 0.000001 0.000000 -0.000000 -0.104111 -0.006771 9.502914 14.673958 43.664190 10.198132 0.000012 0.000003 4.568741 0.018570 31.486571 1.839409 0.000017 0.000016 3.655005 0.518600 31.486001 1.839438 0.000011 -0.000001 2.741264 0.000000 0.000000 -0.000001 -0.086744 2.267465 8.921726 4.647642 48.894271 7.505340 -0.000032 0.000002 4.061110 0.261929 34.301060 -2.391317 0.000011 0.000006 3.654970 -0.738065 34.301090 -2.391301 -0.000000 0.000067 2.741275 -0.000003 0.000001 0.000000 0.173500 4.467253 7.976982 -8.337366 51.339376 1.962831 -0.000004 -0.000009 3.350407 -0.365333 34.366589 -7.638842 -0.000004 0.000020 2.842766 -2.365350 34.366572 -7.638849 0.000013 0.000002 2.639699 -0.000000 -0.000002 0.000001 0.000015 0.000006 0.000006 -0.000001 0.000001 -0.000003 -0.000011 -0.000006 0.000012 0.000000 0.000003 0.000001 -11.289936 0.000010 0.000014 13.369358 0.824517 -7.474579 -0.000000 -0.000043 -38.200333 0.031089 -0.018895 31.293406 0.000012 -0.000007 -39.900841 -3.772389 5.388284 12.117036 0.000015 -15.261663 -0.000013 -0.750222 0.732759 -23.259938 -0.000002 -7.370667 0.000001 0.000000 0.000000 0.000000 -0.000002 0.000061 0.000004 -0.000000 0.000001 0.000000 0.000001 0.000000 0.000009 -0.000000 -0.000000 0.000002 11.315654 0.000002 0.000012 7.811824 5.648459 1.308202 -0.000025 0.000031 -38.200329 0.522735 -0.146967 15.702916 -0.000005 0.000004 -39.900845 11.485361 0.568800 14.824033 0.000001 -15.261608 -0.000003 -0.879385 -0.123527 -23.734918 0.000007 -7.539979 0.000001 0.000000 0.000000 -0.000000 0.000006 -0.000062 -0.000000 0.000000 0.000000 -0.000000 -0.000005 0.000060 -0.000001 -0.000000 0.000000 0.000001 
